# xmcd CD database file
#
# Track frame offsets:
#	150
#	18267
#	36587
#	61730
#	77142
#	97332
#	121285
#	135562
#
# Disc length: 2022 seconds
#
# Revision: 4
# Processed by: cddbd v1.4PL0 Copyright (c) Steve Scherf et al.
# Submitted via: CDex 1.51
#
DISCID=6807e408
DTITLE=Sarah Vaughan - Crazy And Mixed Up
DYEAR=1982
DGENRE=Jazz
TTITLE0=I Didn't Know What Time It Is
TTITLE1=That's All
TTITLE2=Autumn Leaves
TTITLE3=Love Dance
TTITLE4=The Island
TTITLE5=Seasons
TTITLE6=In Love in Vain
TTITLE7=You Are Too Beautiful
EXTD=YEAR: 1982
EXTT0=
EXTT1=
EXTT2=
EXTT3=
EXTT4=
EXTT5=
EXTT6=
EXTT7=
PLAYORDER=
